<?xml version="1.0" encoding="utf-8"?>
<!-- Generator: Adobe Illustrator 19.1.0, SVG Export Plug-In . SVG Version: 6.00 Build 0)  -->
<svg version="1.0" id="Capa_1" xmlns="http://www.w3.org/2000/svg" xmlns:xlink="http://www.w3.org/1999/xlink" x="0px" y="0px"
	 viewBox="-125 577 200 200" style="enable-background:new -125 577 200 200;" xml:space="preserve">
<style type="text/css">
	.st0{fill:#999EA3;}
	.st1{enable-background:new    ;}
	.st2{opacity:0.19;}
	.st3{stroke:#000000;stroke-width:3;stroke-miterlimit:10;}
	.st4{fill:#D1D2D5;stroke:#FFFFFF;stroke-width:3;stroke-miterlimit:10;}
	.st5{fill:#FFFFFF;}
</style>
<path class="st0" d="M7.2,704c-0.3,0.3-0.6,0.6-0.9,0.9C6.5,704.6,6.9,704.3,7.2,704z"/>
<path class="st0" d="M8.1,703.1c-0.3,0.3-0.6,0.6-0.9,0.9C7.5,703.7,7.8,703.3,8.1,703.1z"/>
<g class="st1">
	<g class="st2">
		<path class="st3" d="M-23,710.2V702c-4.7-0.1-9.6-1.5-12.5-3.6l2-5.5c2.9,2,7.2,3.5,11.7,3.5c5.8,0,9.7-3.3,9.7-8
			c0-4.5-3.2-7.3-9.2-9.7c-8.3-3.3-13.5-7-13.5-14.1c0-6.8,4.8-11.9,12.3-13.1v-8.2h5.1v7.9c4.9,0.2,8.2,1.5,10.6,2.9l-2,5.4
			c-1.7-1-5.1-2.8-10.3-2.8c-6.3,0-8.6,3.7-8.6,7c0,4.2,3,6.4,10.1,9.3c8.4,3.4,12.6,7.7,12.6,14.9c0,6.4-4.5,12.5-12.9,13.9v8.5
			H-23z"/>
	</g>
	<g>
		<g>
			<path class="st4" d="M-28,705.2V697c-4.7-0.1-9.6-1.5-12.5-3.6l2-5.5c2.9,2,7.2,3.5,11.7,3.5c5.8,0,9.7-3.3,9.7-8
				c0-4.5-3.2-7.3-9.2-9.7c-8.3-3.3-13.5-7-13.5-14.1c0-6.8,4.8-11.9,12.3-13.1v-8.2h5.1v7.9c4.9,0.2,8.2,1.5,10.6,2.9l-2,5.4
				c-1.7-1-5.1-2.8-10.3-2.8c-6.3,0-8.6,3.7-8.6,7c0,4.2,3,6.4,10.1,9.3c8.4,3.4,12.6,7.7,12.6,14.9c0,6.4-4.5,12.5-12.9,13.9v8.5
				H-28z"/>
		</g>
	</g>
</g>
<g>
	<g class="st2">
		<path d="M-54.5,631.8c17.6-14.3,37.4-18.7,58.7-10.8c22.4,8.3,36.3,24.8,40.5,48.4c5.8,32.4-13.4,64-44.2,74
			c-33,10.6-68-3.7-83.1-34.4c-3.2-6.5-5.3-13.5-8.1-20.7c-3.4,0.3-7.2,0.6-11.1,0.9c-0.1-16,17.3-38.8,34.6-45.5
			c1.1,7,1.3,14.3,3.5,20.9c2.1,6.4,6.2,12.2,9.6,18.6c-3.3,0.6-6.9,1.3-10.3,2c-0.8,16.1,12.5,34,30,40.5
			c22.5,8.3,48.5-0.6,60.9-20.8c13.6-22.2,9.6-51.2-9.4-68.2c-18-16.1-41.7-19.3-64.1-8.6C-49.5,629.2-52,630.5-54.5,631.8z"/>
	</g>
	<g>
		<path class="st5" d="M-59.5,626.8c17.6-14.3,37.4-18.7,58.7-10.8c22.4,8.3,36.3,24.8,40.5,48.4c5.8,32.4-13.4,64-44.2,74
			c-33,10.6-68-3.7-83.1-34.4c-3.2-6.5-5.3-13.5-8.1-20.7c-3.4,0.3-7.2,0.6-11.1,0.9c-0.1-16,17.3-38.8,34.6-45.5
			c1.1,7,1.3,14.3,3.5,20.9c2.1,6.4,6.2,12.2,9.6,18.6c-3.3,0.6-6.9,1.3-10.3,2c-0.8,16.1,12.5,34,30,40.5
			C-17,729,9,720.1,21.4,699.8c13.6-22.2,9.6-51.2-9.4-68.2c-18-16.1-41.7-19.3-64.1-8.6C-54.5,624.2-57,625.5-59.5,626.8z"/>
	</g>
</g>
</svg>
