<?xml version="1.0" encoding="utf-8"?>
<!-- Generator: Adobe Illustrator 19.1.0, SVG Export Plug-In . SVG Version: 6.00 Build 0)  -->
<svg version="1.0" id="Capa_1" xmlns="http://www.w3.org/2000/svg" xmlns:xlink="http://www.w3.org/1999/xlink" x="0px" y="0px"
	 viewBox="-125 577 200 200" style="enable-background:new -125 577 200 200;" xml:space="preserve">
<style type="text/css">
	.st0{fill:#999EA3;}
	.st1{opacity:0.19;}
	.st2{fill:#FFFFFF;}
	.st3{fill:#CCCCCC;}
</style>
<path class="st0" d="M7.2,704c-0.3,0.3-0.6,0.6-0.9,0.9C6.5,704.6,6.9,704.3,7.2,704z"/>
<path class="st0" d="M8.1,703.1c-0.3,0.3-0.6,0.6-0.9,0.9C7.5,703.7,7.8,703.3,8.1,703.1z"/>
<g>
	<g class="st1">
		<path d="M35.7,699.2c-4.8,22.1-17.6,37.9-39.1,45c-22.7,7.5-43.8,3.3-61.9-12.6c-24.7-21.7-29.4-58.4-11.6-85.4
			c19.1-28.9,55.5-39.5,86.4-24.9c6.5,3.1,12.5,7.2,19.2,11.1c2.5-2.3,5.3-5,8.1-7.6c10.1,12.5,10.6,41.1,1.3,57.2
			c-5.2-4.8-9.9-10.3-15.7-14.2c-5.6-3.7-12.4-5.7-19.1-8.5c2.2-2.6,4.5-5.3,6.8-8c-9.4-13.1-31-18.8-48.7-13
			c-22.8,7.5-37.6,30.7-34.6,54.3c3.2,25.8,24.5,46,49.8,47.5c24.1,1.4,44.6-10.9,55.5-33.2C33.5,704.3,34.6,701.7,35.7,699.2z"/>
	</g>
	<g>
		<path class="st2" d="M30.7,694.2c-4.8,22.1-17.6,37.9-39.1,45c-22.7,7.5-43.8,3.3-61.9-12.6c-24.7-21.7-29.4-58.4-11.6-85.4
			c19.1-28.9,55.5-39.5,86.4-24.9c6.5,3.1,12.5,7.2,19.2,11.1c2.5-2.3,5.3-5,8.1-7.6c10.1,12.5,10.6,41.1,1.3,57.2
			c-5.2-4.8-9.9-10.3-15.7-14.2c-5.6-3.7-12.4-5.7-19.1-8.5c2.2-2.6,4.5-5.3,6.8-8c-9.4-13.1-31-18.8-48.7-13
			c-22.8,7.5-37.6,30.7-34.6,54.3c3.2,25.8,24.5,46,49.8,47.5c24.1,1.4,44.6-10.9,55.5-33.2C28.5,699.3,29.6,696.7,30.7,694.2z"/>
	</g>
</g>
<g>
	<g class="st1">
		<path d="M-26.3,696.1c-1.2-3.4,0.1-5.9,1.7-8.4c2.6-4,1.2-7.7-0.8-11.4c-0.2-0.3-0.5-0.5-0.8-0.6c-1.9-0.8-3.2-2.4-3.9-4.3
			c-1.9-5.1-1.7-10,1.1-14.7c4.5-7.5,14.3-7.6,18.8-0.1c3,4.9,3.2,10.1,0.9,15.3c-0.7,1.7-1.9,2.9-3.5,3.7c-0.3,0.1-0.7,0.3-0.9,0.6
			c-2.1,3.7-3.2,7.4-1.1,11.1c2.4,4.1,2.3,4.2,2.3,8.8c0.5,0,1,0,1.5,0c3.6,0,7.3,0,10.9,0c0.9,0,1.3,0.2,1.7,1
			c1.2,2.8,2.7,5.5,3.7,8.4c0.5,1.5,0.3,3.3,0.3,5c0,0.2-0.6,0.5-0.9,0.6c-0.6,0.1-1.3,0-1.9,0c-0.1,0.3-0.1,0.5-0.1,0.7
			c0.2,1.4-0.5,1.7-1.8,1.6c-7.5,0-15,0-22.5,0c-5.9,0-11.9,0-17.8,0c-2.1,0-2.1,0-2.4-2.2c-0.3,0-0.7-0.1-1-0.1
			c-1.9,0-1.8-0.1-1.9-1.9c-0.1-2.1,0.3-4,1.3-5.8c1-2,1.9-4.2,2.8-6.3c0.4-0.8,0.8-1.2,1.8-1.1c3.6,0.1,7.3,0,10.9,0
			C-27.5,696.1-27.1,696.1-26.3,696.1z M-19.4,711.2c-6.5,0-13,0-19.5,0c-0.3,0-0.7-0.1-1,0c-0.3,0.1-0.5,0.4-0.8,0.5
			c0.3,0.2,0.5,0.5,0.8,0.6c0.2,0.1,0.5,0,0.7,0c13,0,26.1,0,39.1,0c0.3,0,0.7,0.1,1,0c0.2-0.1,0.4-0.4,0.6-0.5
			c-0.2-0.2-0.4-0.5-0.7-0.6c-0.3-0.1-0.7,0-1.1,0C-6.6,711.2-13,711.2-19.4,711.2z M4,710.4c1-1.1,0.6-2.2,0.5-3.1
			c0-0.2-0.9-0.5-1.3-0.5c-15.1,0-30.2,0-45.3,0c-0.5,0-1,0.3-1.5,0.5c0.5,0.2,1,0.5,1.5,0.5c14.3,0,28.6,0,42.9,0
			C3.4,707.8,3.4,707.8,4,710.4z M-27.8,672.8c-0.1,0.1-0.2,0.3-0.3,0.4c1.2,0.6,2.3,1.5,3.5,1.8c3.4,0.9,6.8,0.9,10.2,0
			c1.9-0.5,3.3-1.6,4.1-3.4c2.4-5.4,1.9-10.5-1.4-15.4c-0.2-0.4-0.6-0.7-1.1-1.2c0.1,0.4,0.1,0.5,0.1,0.5c0.2,0.3,0.3,0.6,0.5,0.8
			c2.4,4.2,2.8,8.6,1.3,13.1c-0.9,2.5-2.6,4.2-5.3,4.6C-20.2,674.7-24,674.3-27.8,672.8z M-25.3,694.7c-0.1,0.2-0.2,0.3-0.2,0.5
			c0.7,0.3,1.4,0.8,2.1,0.8c2.6,0.1,5.1,0.2,7.7,0c2.2-0.2,2.9-1.4,2.4-3.5c-0.3-1.3-0.9-2.5-1.6-3.6c-2.5-3.7-2.4-7.4-0.6-11.2
			c0.2-0.4,0.3-0.8,0.5-1.2c-0.1-0.1-0.3-0.2-0.4-0.3c-0.5,0.5-1.3,0.9-1.6,1.5c-1.5,3.4-1.7,6.9,0.2,10.3c0.7,1.2,1.4,2.3,2,3.4
			c1.1,2.3,0.3,3.6-2.2,4C-20,695.9-22.7,695.6-25.3,694.7z M-24.9,699.7c0-0.1,0,0.1,0.1,0.2c1.8,1.5,8.4,1.6,10.3,0.2
			c1.1-0.8,1.4-2.2,0.7-3.3c-0.1,0.1-0.3,0.1-0.3,0.2c-0.3,2.6-2.3,3.2-4.4,3.2C-20.6,700.2-22.8,699.9-24.9,699.7z"/>
		<path d="M-19.4,711.2c6.4,0,12.8,0,19.2,0c0.4,0,0.8-0.1,1.1,0c0.3,0.1,0.5,0.4,0.7,0.6c-0.2,0.2-0.4,0.5-0.6,0.5
			c-0.3,0.1-0.6,0-1,0c-13,0-26.1,0-39.1,0c-0.2,0-0.5,0.1-0.7,0c-0.3-0.2-0.6-0.4-0.8-0.6c0.3-0.2,0.5-0.5,0.8-0.5
			c0.3-0.1,0.6,0,1,0C-32.4,711.2-25.9,711.2-19.4,711.2z"/>
		<path d="M4,710.4c-0.6-2.6-0.6-2.6-3.1-2.6c-14.3,0-28.6,0-42.9,0c-0.5,0-1-0.3-1.5-0.5c0.5-0.2,1-0.5,1.5-0.5
			c15.1,0,30.2,0,45.3,0c0.5,0,1.3,0.3,1.3,0.5C4.6,708.2,5,709.3,4,710.4z"/>
		<path d="M-27.8,672.8c3.7,1.5,7.6,1.9,11.6,1.4c2.7-0.4,4.5-2.1,5.3-4.6c1.5-4.6,1.1-9-1.3-13.1c-0.2-0.3-0.3-0.6-0.5-0.8
			c0,0,0-0.1-0.1-0.5c0.5,0.6,0.9,0.8,1.1,1.2c3.3,4.9,3.7,10,1.4,15.4c-0.8,1.8-2.2,2.9-4.1,3.4c-3.4,0.9-6.8,0.9-10.2,0
			c-1.2-0.3-2.3-1.2-3.5-1.8C-28,673-27.9,672.9-27.8,672.8z"/>
		<path d="M-25.3,694.7c2.6,0.9,5.3,1.2,8.1,0.8c2.5-0.4,3.4-1.7,2.2-4c-0.6-1.2-1.4-2.3-2-3.4c-1.9-3.4-1.7-6.9-0.2-10.3
			c0.3-0.6,1.1-1,1.6-1.5c0.1,0.1,0.3,0.2,0.4,0.3c-0.2,0.4-0.3,0.8-0.5,1.2c-1.8,3.9-1.9,7.6,0.6,11.2c0.7,1.1,1.3,2.4,1.6,3.6
			c0.6,2.1-0.2,3.3-2.4,3.5c-2.5,0.2-5.1,0.1-7.7,0c-0.7,0-1.4-0.5-2.1-0.8C-25.5,695-25.4,694.9-25.3,694.7z"/>
		<path d="M-24.9,699.7c2.1,0.2,4.3,0.4,6.4,0.4c2.1,0,4.1-0.6,4.4-3.2c0-0.1,0.2-0.1,0.3-0.2c0.7,1.1,0.4,2.5-0.7,3.3
			c-1.9,1.5-8.5,1.3-10.3-0.2C-24.9,699.8-24.9,699.7-24.9,699.7z"/>
	</g>
	<g>
		<g>
			<path class="st2" d="M-31.3,691.1c-1.2-3.4,0.1-5.9,1.7-8.4c2.6-4,1.2-7.7-0.8-11.4c-0.2-0.3-0.5-0.5-0.8-0.6
				c-1.9-0.8-3.2-2.4-3.9-4.3c-1.9-5.1-1.7-10,1.1-14.7c4.5-7.5,14.3-7.6,18.8-0.1c3,4.9,3.2,10.1,0.9,15.3
				c-0.7,1.7-1.9,2.9-3.5,3.7c-0.3,0.1-0.7,0.3-0.9,0.6c-2.1,3.7-3.2,7.4-1.1,11.1c2.4,4.1,2.3,4.2,2.3,8.8c0.5,0,1,0,1.5,0
				c3.6,0,7.3,0,10.9,0c0.9,0,1.3,0.2,1.7,1c1.2,2.8,2.7,5.5,3.7,8.4c0.5,1.5,0.3,3.3,0.3,5c0,0.2-0.6,0.5-0.9,0.6
				c-0.6,0.1-1.3,0-1.9,0c-0.1,0.3-0.1,0.5-0.1,0.7c0.2,1.4-0.5,1.7-1.8,1.6c-7.5,0-15,0-22.5,0c-5.9,0-11.9,0-17.8,0
				c-2.1,0-2.1,0-2.4-2.2c-0.3,0-0.7-0.1-1-0.1c-1.9,0-1.8-0.1-1.9-1.9c-0.1-2.1,0.3-4,1.3-5.8c1-2,1.9-4.2,2.8-6.3
				c0.4-0.8,0.8-1.2,1.8-1.1c3.6,0.1,7.3,0,10.9,0C-32.5,691.1-32.1,691.1-31.3,691.1z M-24.4,706.2c-6.5,0-13,0-19.5,0
				c-0.3,0-0.7-0.1-1,0c-0.3,0.1-0.5,0.4-0.8,0.5c0.3,0.2,0.5,0.5,0.8,0.6c0.2,0.1,0.5,0,0.7,0c13,0,26.1,0,39.1,0
				c0.3,0,0.7,0.1,1,0c0.2-0.1,0.4-0.4,0.6-0.5c-0.2-0.2-0.4-0.5-0.7-0.6c-0.3-0.1-0.7,0-1.1,0C-11.6,706.2-18,706.2-24.4,706.2z
				 M-1,705.4c1-1.1,0.6-2.2,0.5-3.1c0-0.2-0.9-0.5-1.3-0.5c-15.1,0-30.2,0-45.3,0c-0.5,0-1,0.3-1.5,0.5c0.5,0.2,1,0.5,1.5,0.5
				c14.3,0,28.6,0,42.9,0C-1.6,702.8-1.6,702.8-1,705.4z M-32.8,667.8c-0.1,0.1-0.2,0.3-0.3,0.4c1.2,0.6,2.3,1.5,3.5,1.8
				c3.4,0.9,6.8,0.9,10.2,0c1.9-0.5,3.3-1.6,4.1-3.4c2.4-5.4,1.9-10.5-1.4-15.4c-0.2-0.4-0.6-0.7-1.1-1.2c0.1,0.4,0.1,0.5,0.1,0.5
				c0.2,0.3,0.3,0.6,0.5,0.8c2.4,4.2,2.8,8.6,1.3,13.1c-0.9,2.5-2.6,4.2-5.3,4.6C-25.2,669.7-29,669.3-32.8,667.8z M-30.3,689.7
				c-0.1,0.2-0.2,0.3-0.2,0.5c0.7,0.3,1.4,0.8,2.1,0.8c2.6,0.1,5.1,0.2,7.7,0c2.2-0.2,2.9-1.4,2.4-3.5c-0.3-1.3-0.9-2.5-1.6-3.6
				c-2.5-3.7-2.4-7.4-0.6-11.2c0.2-0.4,0.3-0.8,0.5-1.2c-0.1-0.1-0.3-0.2-0.4-0.3c-0.5,0.5-1.3,0.9-1.6,1.5
				c-1.5,3.4-1.7,6.9,0.2,10.3c0.7,1.2,1.4,2.3,2,3.4c1.1,2.3,0.3,3.6-2.2,4C-25,690.9-27.7,690.6-30.3,689.7z M-29.9,694.7
				c0-0.1,0,0.1,0.1,0.2c1.8,1.5,8.4,1.6,10.3,0.2c1.1-0.8,1.4-2.2,0.7-3.3c-0.1,0.1-0.3,0.1-0.3,0.2c-0.3,2.6-2.3,3.2-4.4,3.2
				C-25.6,695.2-27.8,694.9-29.9,694.7z"/>
			<path class="st3" d="M-24.4,706.2c6.4,0,12.8,0,19.2,0c0.4,0,0.8-0.1,1.1,0c0.3,0.1,0.5,0.4,0.7,0.6c-0.2,0.2-0.4,0.5-0.6,0.5
				c-0.3,0.1-0.6,0-1,0c-13,0-26.1,0-39.1,0c-0.2,0-0.5,0.1-0.7,0c-0.3-0.2-0.6-0.4-0.8-0.6c0.3-0.2,0.5-0.5,0.8-0.5
				c0.3-0.1,0.6,0,1,0C-37.4,706.2-30.9,706.2-24.4,706.2z"/>
			<path class="st3" d="M-1,705.4c-0.6-2.6-0.6-2.6-3.1-2.6c-14.3,0-28.6,0-42.9,0c-0.5,0-1-0.3-1.5-0.5c0.5-0.2,1-0.5,1.5-0.5
				c15.1,0,30.2,0,45.3,0c0.5,0,1.3,0.3,1.3,0.5C-0.4,703.2,0,704.3-1,705.4z"/>
			<path class="st3" d="M-32.8,667.8c3.7,1.5,7.6,1.9,11.6,1.4c2.7-0.4,4.5-2.1,5.3-4.6c1.5-4.6,1.1-9-1.3-13.1
				c-0.2-0.3-0.3-0.6-0.5-0.8c0,0,0-0.1-0.1-0.5c0.5,0.6,0.9,0.8,1.1,1.2c3.3,4.9,3.7,10,1.4,15.4c-0.8,1.8-2.2,2.9-4.1,3.4
				c-3.4,0.9-6.8,0.9-10.2,0c-1.2-0.3-2.3-1.2-3.5-1.8C-33,668-32.9,667.9-32.8,667.8z"/>
			<path class="st3" d="M-30.3,689.7c2.6,0.9,5.3,1.2,8.1,0.8c2.5-0.4,3.4-1.7,2.2-4c-0.6-1.2-1.4-2.3-2-3.4
				c-1.9-3.4-1.7-6.9-0.2-10.3c0.3-0.6,1.1-1,1.6-1.5c0.1,0.1,0.3,0.2,0.4,0.3c-0.2,0.4-0.3,0.8-0.5,1.2c-1.8,3.9-1.9,7.6,0.6,11.2
				c0.7,1.1,1.3,2.4,1.6,3.6c0.6,2.1-0.2,3.3-2.4,3.5c-2.5,0.2-5.1,0.1-7.7,0c-0.7,0-1.4-0.5-2.1-0.8
				C-30.5,690-30.4,689.9-30.3,689.7z"/>
			<path class="st3" d="M-29.9,694.7c2.1,0.2,4.3,0.4,6.4,0.4c2.1,0,4.1-0.6,4.4-3.2c0-0.1,0.2-0.1,0.3-0.2c0.7,1.1,0.4,2.5-0.7,3.3
				c-1.9,1.5-8.5,1.3-10.3-0.2C-29.9,694.8-29.9,694.7-29.9,694.7z"/>
		</g>
	</g>
</g>
</svg>
